#!OML:ASF F:\VICON\USERDATA\INSTALL\Justin_Nancy\Justin_Nancy.ASF
:FULLY-SPECIFIED
:DEGREES
101
root -3.30815 16.9635 3.64165 1.80621 36.131 -8.02135
lowerback 12.5262 2.02759 3.83312
upperback -0.0355774 3.54146 3.49326
thorax -7.07132 1.67068 0.88591
lowerneck -22.5463 -4.95881 -9.27248
upperneck 13.9582 -4.84064 5.32792
head 8.37586 -2.23905 2.63797
rclavicle -5.97348e-014 -5.56597e-015
rhumerus -30.4748 4.565 -78.7278
rradius 115.339
rwrist -9.51153
rhand -12.9643 25.7307
rfingers 7.12502
rthumb 13.1276 -3.83606
lclavicle -5.97348e-014 -5.56597e-015
lhumerus -47.6844 -4.53218 91.8932
lradius 97.2533
lwrist 21.9785
lhand -15.9606 8.92921
lfingers 7.12502
lthumb 10.2382 38.6601
rfemur -10.1517 3.10453 28.809
rtibia 39.4657
rfoot -18.6788 -10.0057
rtoes -21.8524
lfemur -35.717 1.6022 -15.8125
ltibia 88.3031
lfoot 1.32328 -9.05896
ltoes -4.07934
102
root -3.10907 17.0437 3.93702 1.77733 36.3548 -8.2631
lowerback 12.4111 2.20811 4.31894
upperback -0.179245 3.84285 3.3761
thorax -7.11822 1.79554 0.438906
lowerneck -22.5769 -5.09212 -9.10022
upperneck 14.1431 -5.09063 5.37875
head 8.45995 -2.34266 2.59206
rclavicle 4.9895e-014 1.23246e-014
rhumerus -29.7363 4.4468 -78.835
rradius 115.418
rwrist -10.2412
rhand -13.6317 25.3499
rfingers 7.12502
rthumb 12.4842 -4.25722
lclavicle 4.9895e-014 1.23246e-014
lhumerus -48.3051 -4.48781 91.8081
lradius 97.5587
lwrist 21.6971
lhand -14.9119 8.52483
lfingers 7.12502
lthumb 11.2497 38.2032
rfemur -8.59064 3.31942 29.1439
rtibia 38.641
rfoot -17.3372 -9.91731
rtoes -21.6709
lfemur -36.7988 2.06524 -15.9136
ltibia 86.7677
lfoot -0.13034 -9.0003
ltoes -4.03073
103
root -2.91265 17.1215 4.22829 1.93151 36.673 -8.21523
lowerback 12.2746 2.29906 4.52212
upperback -0.3065 3.98146 3.26341
thorax -7.15277 1.85121 0.185721
lowerneck -22.5069 -5.13093 -9.00757
upperneck 14.1088 -5.18501 5.40945
head 8.44208 -2.37944 2.57489
rclavicle 3.86636e-014 -2.14687e-014
rhumerus -29.6386 4.44067 -79.3286
rradius 115.989
rwrist -10.521
rhand -13.6329 25.3742
rfingers 7.12502
rthumb 12.483 -4.233
lclavicle 3.86636e-014 -2.14687e-014
lhumerus -49.0915 -4.36135 91.8074
lradius 97.9917
lwrist 21.5381
lhand -14.8252 8.50292
lfingers 7.12502
lthumb 11.3333 38.1767
rfemur -7.15524 3.44771 29.2507
rtibia 37.8393
rfoot -15.6302 -9.745
rtoes -23.4105
lfemur -37.8254 2.25313 -16.3069
ltibia 84.9161
lfoot -1.41005 -8.96936
ltoes -4.17479
104
root -2.70271 17.2123 4.50747 2.40758 37.1399 -7.72011
lowerback 12.1476 2.31704 4.53177
upperback -0.485788 3.99036 3.05818
thorax -7.25637 1.84604 -0.0355222
lowerneck -22.0675 -4.96137 -8.54256
upperneck 13.7506 -5.03764 4.94294
head 8.20987 -2.33795 2.3668
rclavicle -9.13416e-014 -1.27222e-014
rhumerus -29.942 4.22386 -79.9334
rradius 116.58
rwrist -10.0001
rhand -13.7016 25.6274
rfingers 7.12502
rthumb 12.4168 -3.9838
lclavicle -9.13416e-014 -1.27222e-014
lhumerus -49.9212 -4.12623 91.9584
lradius 98.3921
lwrist 21.3033
lhand -14.7372 8.63188
lfingers 7.12502
lthumb 11.4182 38.301
rfemur -5.82407 3.21721 28.8355
rtibia 37.0001
rfoot -13.905 -8.93824
rtoes -23.9369
lfemur -38.6756 2.08408 -17.1591
ltibia 82.6868
lfoot -2.15256 -8.61001
ltoes -2.96611
105
root -2.48108 17.3185 4.78661 2.88129 37.9085 -7.27658
lowerback 11.7792 2.28813 4.69715
upperback -0.570309 3.94109 2.90178
thorax -7.1166 1.81505 -0.268652
lowerneck -23.5754 -5.41507 -10.5673
upperneck 15.6883 -5.34292 6.981
head 9.27456 -2.36527 3.34849
rclavicle -4.04527e-014 -1.82882e-014
rhumerus -29.8413 4.15733 -80.4473
rradius 116.777
rwrist -9.35707
rhand -15.1894 25.0533
rfingers 7.12502
rthumb 10.9821 -4.63947
lclavicle -4.04527e-014 -1.82882e-014
lhumerus -50.5197 -4.03722 92.2464
lradius 98.5683
lwrist 21.0979
lhand -14.0032 7.87014
lfingers 7.12502
lthumb 12.126 37.4987
rfemur -4.45136 2.75456 28.4215
rtibia 36.0227
rfoot -11.8001 -8.0427
rtoes -24.4872
lfemur -39.3326 1.61033 -17.983
ltibia 80.0768
lfoot -2.39336 -7.87315
ltoes -0.625467
106
root -2.25825 17.4313 5.07967 3.20909 38.7639 -6.97487
lowerback 11.3603 2.26088 4.8868
upperback -0.604595 3.89624 2.81822
thorax -6.89861 1.79 -0.435854
lowerneck -23.8377 -5.69051 -11.3051
upperneck 16.0488 -5.60205 7.63911
head 9.51548 -2.4548 3.66287
rclavicle 1.05356e-014 3.89618e-014
rhumerus -29.6273 4.2655 -80.8781
rradius 116.808
rwrist -9.31612
rhand -16.2921 24.5081
rfingers 7.12502
rthumb 9.91838 -5.23824
lclavicle 1.05356e-014 3.89618e-014
lhumerus -51.1193 -4.16941 92.7059
lradius 98.7711
lwrist 21.224
lhand -14.8055 7.59887
lfingers 7.12502
lthumb 11.3523 37.2716
rfemur -3.04107 2.49612 28.1392
rtibia 34.7763
rfoot -9.24793 -6.92394
rtoes -24.9852
lfemur -39.8042 1.21796 -18.739
ltibia 77.12
lfoot -2.576 -7.17266
ltoes -1.61866
107
root -2.02967 17.5445 5.38281 3.39438 39.2324 -6.80568
lowerback 11.0458 2.27179 5.10618
upperback -0.664797 3.91588 2.76014
thorax -6.76535 1.79358 -0.608451
lowerneck -23.6546 -5.77841 -11.2588
upperneck 15.9938 -5.72133 7.47474
head 9.46998 -2.52928 3.57816
rclavicle -1.43821e-013 -1.03368e-014
rhumerus -29.5392 4.38956 -81.2994
rradius 116.818
rwrist -9.41749
rhand -16.2856 24.485
rfingers 7.12502
rthumb 9.92466 -5.26109
lclavicle -1.43821e-013 -1.03368e-014
lhumerus -51.77 -3.88293 92.7837
lradius 98.8584
lwrist 20.0584
lhand -13.9528 7.89021
lfingers 7.12502
lthumb 12.1746 37.5159
rfemur -1.61188 2.78009 27.925
rtibia 33.2374
rfoot -6.28902 -5.61234
rtoes -22.94
lfemur -39.9599 1.18457 -19.3258
ltibia 73.9713
lfoot -2.85489 -6.65345
ltoes -2.84637
108
root -1.80019 17.6442 5.68715 3.54228 39.4486 -6.72877
lowerback 10.7298 2.36476 5.31232
upperback -0.765727 4.04909 2.76683
thorax -6.67493 1.85318 -0.723623
lowerneck -23.577 -5.88445 -11.3713
upperneck 16.2387 -5.80286 7.26791
head 9.54781 -2.60148 3.51222
rclavicle -5.17834e-014 0
rhumerus -29.5764 4.55202 -81.4331
rradius 116.848
rwrist -9.07903
rhand -16.2662 23.9965
rfingers 7.12502
rthumb 9.94338 -5.74866
lclavicle -5.17834e-014 0
lhumerus -52.5316 -3.74478 93.1049
lradius 99.0564
lwrist 19.9777
lhand -14.2524 8.58925
lfingers 7.12502
lthumb 11.8857 38.2319
rfemur -0.0762415 3.07754 27.8547
rtibia 31.5366
rfoot -2.83741 -4.67809
rtoes -23.2981
lfemur -40.029 1.23994 -19.7511
ltibia 70.7446
lfoot -3.40792 -6.32675
ltoes -3.52937
109
root -1.56855 17.7337 5.99602 3.70391 39.8577 -6.59442
lowerback 10.2907 2.41254 5.43924
upperback -0.837705 4.09824 2.75712
thorax -6.49077 1.87751 -0.791226
lowerneck -23.1817 -5.82195 -11.015
upperneck 16.0302 -5.74606 6.68952
head 9.37002 -2.62412 3.25977
rclavicle -7.38485e-014 -2.46493e-014
rhumerus -29.5892 4.82647 -81.4704
rradius 116.724
rwrist -8.64104
rhand -16.4527 23.781
rfingers 7.12502
rthumb 9.76345 -5.97267
lclavicle -7.38485e-014 -2.46493e-014
lhumerus -53.2455 -3.64794 93.3685
lradius 99.2133
lwrist 20.5222
lhand -14.4679 8.69748
lfingers 7.12502
lthumb 11.6779 38.352
rfemur 1.58148 2.73201 27.734
rtibia 29.7747
rfoot 0.973571 -3.46579
rtoes -27.0179
lfemur -40.0494 1.16285 -20.2198
ltibia 67.3285
lfoot -4.25077 -6.54392
ltoes -5.7089
110
root -1.33137 17.8266 6.30962 3.91938 40.3775 -6.36581
lowerback 9.80765 2.39806 5.63876
upperback -0.880686 4.05526 2.59744
thorax -6.23877 1.85337 -1.03897
lowerneck -22.3184 -5.55173 -9.81445
upperneck 15.0756 -5.5888 5.57421
head 8.80299 -2.60816 2.70566
rclavicle -4.07509e-015 1.59028e-015
rhumerus -29.8192 4.92628 -81.8976
rradius 116.654
rwrist -9.11477
rhand -16.3135 24.3696
rfingers 7.12502
rthumb 9.89767 -5.37776
lclavicle -4.07509e-015 1.59028e-015
lhumerus -53.8885 -3.66213 93.3443
lradius 99.3284
lwrist 20.735
lhand -14.6475 8.4822
lfingers 7.12502
lthumb 11.5047 38.1465
rfemur 3.12636 2.53807 27.487
rtibia 28.0274
rfoot 5.03537 -2.07231
rtoes -27.4244
lfemur -39.8433 0.855031 -20.7209
ltibia 63.6562
lfoot -4.7028 -6.61828
ltoes -6.25148
111
root -1.08527 17.9374 6.6257 4.11988 40.8276 -6.13169
lowerback 9.40413 2.38273 5.89523
upperback -0.948867 4.02225 2.40854
thorax -6.05287 1.82958 -1.3546
lowerneck -21.8235 -5.37626 -9.05423
upperneck 14.6803 -5.51031 5.0109
head 8.53672 -2.59238 2.40769
rclavicle -1.87852e-014 -8.74653e-015
rhumerus -30.3437 5.1312 -82.5349
rradius 116.617
rwrist -9.69972
rhand -16.3021 25.5942
rfingers 7.12502
rthumb 9.90869 -4.15263
lclavicle -1.87852e-014 -8.74653e-015
lhumerus -54.725 -3.83249 93.2777
lradius 99.6374
lwrist 20.3607
lhand -14.9928 8.40552
lfingers 7.12502
lthumb 11.1717 38.0881
rfemur 4.54771 2.72133 27.1937
rtibia 26.2825
rfoot 9.70107 -0.743397
rtoes -25.5617
lfemur -39.2896 0.670525 -21.1988
ltibia 59.6966
lfoot -4.81613 -6.54169
ltoes -5.35745
112
root -0.839418 18.0436 6.93882 4.43855 41.2854 -5.83648
lowerback 8.92289 2.35414 5.99395
upperback -1.0204 3.95321 2.31479
thorax -5.84648 1.79643 -1.47489
lowerneck -21.6868 -5.36471 -9.0665
upperneck 14.8104 -5.54432 5.18526
head 8.56655 -2.59347 2.46681
rclavicle -6.85807e-015 3.18055e-015
rhumerus -30.7436 5.65662 -82.8836
rradius 116.57
rwrist -10.0917
rhand -15.7177 26.176
rfingers 7.12502
rthumb 10.4725 -3.54317
lclavicle -6.85807e-015 3.18055e-015
lhumerus -55.5203 -3.89138 93.3183
lradius 99.9523
lwrist 19.8632
lhand -15.4142 8.48035
lfingers 7.12502
lthumb 10.7652 38.1845
rfemur 5.80653 3.0556 26.9326
rtibia 24.6136
rfoot 14.4362 0.224064
rtoes -24.5205
lfemur -38.7365 0.796873 -21.7842
ltibia 55.5814
lfoot -4.86882 -6.77542
ltoes -6.59542
113
root -0.604605 18.1243 7.25013 4.72625 41.6076 -5.5703
lowerback 8.36128 2.36053 5.86846
upperback -0.939683 3.90152 2.37591
thorax -5.45787 1.79018 -1.30447
lowerneck -21.717 -5.42517 -9.23487
upperneck 14.7767 -5.58078 5.2361
head 8.56959 -2.61429 2.50528
rclavicle 2.54444e-014 -7.95139e-016
rhumerus -30.7391 6.41866 -82.9082
rradius 116.481
rwrist -10.3753
rhand -15.1543 25.8653
rfingers 7.12502
rthumb 11.0159 -3.82562
lclavicle 2.54444e-014 -7.95139e-016
lhumerus -55.6645 -3.53116 93.4679
lradius 99.9099
lwrist 19.5868
lhand -15.2032 8.16834
lfingers 7.12502
lthumb 10.9688 37.8618
rfemur 7.23919 3.54015 26.8344
rtibia 22.8202
rfoot 18.2344 0.353091
rtoes -21.2096
lfemur -38.2637 0.913882 -22.2402
ltibia 51.6742
lfoot -4.96619 -6.81467
ltoes -7.48909
114
root -0.380386 18.1861 7.57209 4.75439 41.7669 -5.59796
lowerback 7.91139 2.4093 5.79221
upperback -0.823673 3.92155 2.47128
thorax -5.09113 1.81735 -1.13947
lowerneck -22.0921 -5.48803 -9.63816
upperneck 14.9198 -5.56301 5.50963
head 8.70158 -2.59517 2.66163
rclavicle 2.26615e-014 1.03368e-014
rhumerus -30.7666 7.3501 -83.0513
rradius 116.534
rwrist -10.569
rhand -15.3765 25.0835
rfingers 7.12502
rthumb 10.8016 -4.61875
lclavicle 2.26615e-014 1.03368e-014
lhumerus -55.6583 -3.35339 93.4627
lradius 99.8813
lwrist 19.5822
lhand -14.6647 7.91838
lfingers 7.12502
lthumb 11.4881 37.5836
rfemur 8.42698 4.18417 27.0768
rtibia 21.7976
rfoot 20.894 0.252204
rtoes -15.5048
lfemur -37.6489 1.01606 -22.3208
ltibia 47.6785
lfoot -5.03397 -6.40946
ltoes -7.76439
115
root -0.214846 18.225 7.97502 0.871334 40.9974 -9.36928
lowerback 9.08094 2.6952 7.33996
upperback -0.514921 4.61836 3.44832
thorax -5.35617 2.13245 -1.11297
lowerneck -22.0722 -5.45672 -9.47088
upperneck 15.0222 -5.60454 5.63123
head 8.73548 -2.59262 2.67161
rclavicle -1.03368e-014 -7.15625e-015
rhumerus -31.2904 8.17817 -83.3572
rradius 116.756
rwrist -10.76
rhand -15.7738 24.351
rfingers 7.12502
rthumb 10.4183 -5.37085
lclavicle -1.03368e-014 -7.15625e-015
lhumerus -56.3763 -3.99302 93.2459
lradius 100.398
lwrist 19.7241
lhand -15.2023 7.98966
lfingers 7.12502
lthumb 10.9696 37.6831
rfemur 10.7231 6.95243 31.4132
rtibia 21.3718
rfoot 23.4917 -1.63999
rtoes -8.94699
lfemur -35.8074 2.13423 -18.8195
ltibia 44.0121
lfoot -4.66984 -6.56619
ltoes -7.0592
